<svg width="125" height="118" viewBox="0 0 125 118" fill="none" xmlns="http://www.w3.org/2000/svg">
<path d="M119.981 84.2643C119.631 84.2643 119.282 84.3309 118.949 84.4141L65.6573 5.84175C65.9236 5.30917 66.09 4.71001 66.09 4.06093C66.09 1.8141 64.2759 0 62.0291 0C59.7822 0 57.9681 1.8141 57.9681 4.06093C57.9681 4.69337 58.1346 5.29252 58.4008 5.84175L5.09281 84.4141C4.75994 84.3309 4.42708 84.2643 4.06093 84.2643C1.8141 84.2643 0 86.0784 0 88.3252C0 90.5721 1.8141 92.3862 4.06093 92.3862C4.72666 92.3862 5.3591 92.2031 5.92496 91.9202L58.1179 115.004C58.5839 116.735 60.1484 118 62.0291 118C63.9097 118 65.4742 116.718 65.9402 115.004L118.133 91.9202C118.699 92.2031 119.315 92.3862 119.997 92.3862C122.244 92.3862 124.058 90.5721 124.058 88.3252C124.058 86.0784 122.244 84.2643 119.997 84.2643H119.981ZM65.6905 63.3605C65.3078 62.5284 64.642 61.8626 63.8099 61.4465V16.4434L78.0731 64.8085C74.0121 64.0262 69.8846 63.5436 65.6905 63.3605ZM45.8685 64.8251L60.2149 16.1439V61.4465C59.3994 61.8626 58.7337 62.5284 58.3343 63.3605C54.1069 63.5436 49.9461 64.0262 45.8685 64.8251ZM66.8556 14.0135L110.943 79.0217C102.222 72.7472 92.4694 68.237 82.0841 65.6906L66.8556 14.0135ZM41.8575 65.7072C31.5221 68.2536 21.7859 72.7473 13.0982 79.0051L57.0361 14.2299L41.8575 65.7072ZM8.05529 87.7094C17.4753 79.1382 28.6262 73.0635 40.6592 69.7515L31.8883 99.4762L8.03865 88.9244C8.07193 88.7247 8.10522 88.525 8.10522 88.3252C8.10522 88.1255 8.07193 87.9092 8.03865 87.6928L8.05529 87.7094ZM44.7202 68.7529C49.1972 67.771 53.7907 67.1551 58.4508 66.9554C58.8502 67.7044 59.466 68.3202 60.2316 68.6863V110.311C59.699 110.577 59.2496 110.943 58.8835 111.393L35.2336 100.941L44.7202 68.7529ZM63.8265 110.328V68.703C64.5921 68.3202 65.2079 67.721 65.6073 66.9721C70.2341 67.1718 74.7944 67.771 79.2381 68.7529L88.7413 101.007L65.1746 111.426C64.8085 110.977 64.3591 110.61 63.8265 110.344V110.328ZM83.2824 69.7348C95.3653 73.0302 106.533 79.1216 115.986 87.7094C115.953 87.9092 115.92 88.1255 115.92 88.3419C115.92 88.5583 115.953 88.7413 115.986 88.941L92.07 99.5261L83.2824 69.7348Z" fill="white"/>
</svg>
