<svg width="33" height="33" viewBox="0 0 33 33" fill="none" xmlns="http://www.w3.org/2000/svg">
<path d="M16.5 32C25.0604 32 32 25.0604 32 16.5C32 7.93959 25.0604 1 16.5 1C7.93959 1 1 7.93959 1 16.5C1 25.0604 7.93959 32 16.5 32Z" stroke="white" stroke-miterlimit="10"/>
<path d="M16.5 7.27158L16.5 23.2971" stroke="white" stroke-miterlimit="10"/>
<path d="M16.5001 26C17.3285 26 18.0001 25.3284 18.0001 24.5C18.0001 23.6715 17.3285 23 16.5001 23C15.6717 23 15.0001 23.6715 15.0001 24.5C15.0001 25.3284 15.6717 26 16.5001 26Z" fill="white"/>
<path d="M23.5804 17.8215L16.4977 24.9042L9.41711 17.8215" stroke="white" stroke-miterlimit="10"/>
</svg>
