<svg width="33" height="32" viewBox="0 0 33 32" fill="none" xmlns="http://www.w3.org/2000/svg">
<path d="M16.7774 12.9482C15.0897 12.9482 13.725 14.3168 13.725 16.0006C13.725 17.6844 15.0935 19.053 16.7774 19.053C18.4612 19.053 19.8297 17.6844 19.8297 16.0006C19.8297 14.3168 18.4612 12.9482 16.7774 12.9482Z" fill="white"/>
<path d="M20.7408 8.55298H12.8139C10.8917 8.55298 9.33093 10.1099 9.33093 12.0359V19.9629C9.33093 21.885 10.8879 23.4458 12.8139 23.4458H20.7408C22.663 23.4458 24.2238 21.8889 24.2238 19.9629V12.0359C24.2238 10.1138 22.6668 8.55298 20.7408 8.55298ZM16.7774 20.6818C14.194 20.6818 12.0988 18.5866 12.0988 16.0032C12.0988 13.4199 14.194 11.3209 16.7774 11.3209C19.3607 11.3209 21.4597 13.416 21.4597 16.0032C21.4597 18.5905 19.3646 20.6818 16.7774 20.6818ZM21.6173 12.2128C21.0368 12.2128 20.5678 11.7438 20.5678 11.1633C20.5678 10.5828 21.0368 10.1138 21.6173 10.1138C22.1978 10.1138 22.6668 10.5828 22.6668 11.1633C22.6668 11.7438 22.1978 12.2128 21.6173 12.2128Z" fill="white"/>
<path d="M16.7773 0C7.93928 0 0.777344 7.16194 0.777344 16C0.777344 24.8381 7.93928 32 16.7773 32C25.6154 32 32.7773 24.8381 32.7773 16C32.7773 7.16194 25.6154 0 16.7773 0ZM25.6577 19.9865C25.6577 22.6891 23.4664 24.8842 20.76 24.8842H12.7908C10.0883 24.8842 7.89315 22.6929 7.89315 19.9865V12.0173C7.89315 9.31475 10.0844 7.11965 12.7908 7.11965H20.76C23.4626 7.11965 25.6577 9.31091 25.6577 12.0173V19.9865Z" fill="white"/>
</svg>
