<svg width="32" height="32" viewBox="0 0 32 32" fill="none" xmlns="http://www.w3.org/2000/svg">
<path d="M16.8229 13.5045V13.4785C16.8229 13.4785 16.81 13.498 16.8035 13.5045H16.8229Z" fill="white"/>
<path d="M16 0C7.16194 0 0 7.16194 0 16C0 24.8381 7.16194 32 16 32C24.8381 32 32 24.8381 32 16C32 7.16194 24.8381 0 16 0ZM11.6982 22.001H8.39596V12.0673H11.6982V22.001ZM10.0951 10.3988C9.15714 10.3988 8.39596 9.63767 8.39596 8.69966C8.39596 7.76165 9.15714 7.00048 10.0951 7.00048C11.0332 7.00048 11.7943 7.76165 11.7943 8.69966C11.7943 9.63767 11.0332 10.3988 10.0951 10.3988ZM23.604 22.001H20.3018V16.6881C20.3018 15.3542 19.8251 14.4431 18.6295 14.4431C17.7184 14.4431 17.1764 15.0581 16.9342 15.6502C16.8457 15.8616 16.8265 16.1576 16.8265 16.4536V22.001H13.5243C13.5243 22.001 13.5704 13.0014 13.5243 12.0673H16.8265V13.4743C17.2648 12.7977 18.049 11.8328 19.802 11.8328C21.9741 11.8328 23.604 13.2513 23.604 16.3037V22.001Z" fill="white"/>
</svg>
