<svg width="158" height="50" viewBox="0 0 158 50" fill="none" xmlns="http://www.w3.org/2000/svg">
<path d="M86.6866 29.9725C85.8731 28.5632 84.3722 27.7039 82.7567 27.7039C82.7567 27.7039 82.7337 27.7039 82.7223 27.7039H68.5495V34.0857H66.4299V13.8405H82.7223C84.5211 13.8405 86.4116 13.9207 88.05 14.8717C90.0436 16.0518 91.2924 18.3089 91.2924 20.7608C91.2924 23.2127 90.055 25.5041 88.05 26.6728C87.8437 26.7874 87.6375 26.9019 87.4198 26.9936L91.4986 34.0742H89.0582L86.6866 29.961V29.9725ZM82.6765 25.5843C83.9482 25.5843 85.6783 25.5843 86.9615 24.8281C88.2677 24.0605 89.1155 22.4679 89.1155 20.7722C89.1155 19.0765 88.2791 17.4954 86.9386 16.7163C85.747 16.0174 84.2461 15.9601 82.6765 15.9601H68.5495V25.5843H82.6765Z" fill="white"/>
<path d="M100.069 13.8405H97.9492V34.0742H100.069V13.8405Z" fill="white"/>
<path d="M134.59 13.8405V27.6237C134.59 31.187 137.478 34.0857 141.052 34.0857H157.941V31.9661H140.926C138.601 31.9661 136.71 30.0756 136.71 27.7498V25.0344H156.084V22.9148H136.71V15.9716H157.941V13.852H134.59V13.8405Z" fill="white"/>
<path d="M121.918 22.9262L113.646 22.0325C111.32 21.7805 108.937 21.242 108.971 19.1797C109.028 15.8799 115.181 15.2383 117.358 15.2727C120.887 15.3414 124.565 16.4643 127.188 18.286L127.624 18.5839V16.0403L127.532 15.983C124.645 14.253 120.956 13.2218 117.404 13.1531C113.795 13.0958 106.932 14.2415 106.852 19.0307C106.771 23.4189 111.423 23.923 113.921 24.1865L122.376 25.1031C125.848 25.4812 127.372 26.4436 127.349 28.2195C127.28 32.39 120.211 32.7108 117.175 32.665C113.634 32.6077 109.957 31.4734 107.321 29.6517L106.886 29.3538V31.8974L106.978 31.9546C109.865 33.6962 113.566 34.7273 117.129 34.7846C120.807 34.8534 129.354 34.3492 129.468 28.2997C129.537 24.2896 125.687 23.3272 121.918 22.9262Z" fill="white"/>
<path d="M50.8249 35.7012C50.676 35.7012 50.527 35.7241 50.3895 35.7585L27.8185 2.47479C27.9331 2.24565 28.0018 1.99358 28.0018 1.71861C28.0018 0.767644 27.2342 0 26.2832 0C25.3323 0 24.5646 0.767644 24.5646 1.71861C24.5646 1.99358 24.6334 2.24565 24.7479 2.47479L2.15399 35.7585C2.0165 35.7241 1.86755 35.7012 1.71861 35.7012C0.767644 35.7012 0 36.4688 0 37.4198C0 38.3708 0.767644 39.1384 1.71861 39.1384C2.00504 39.1384 2.26856 39.0582 2.50917 38.9436L24.6219 48.7282C24.8167 49.4615 25.4812 50 26.2718 50C27.0623 50 27.7269 49.4615 27.9216 48.7282L50.0344 38.9436C50.275 39.0697 50.5385 39.1384 50.8249 39.1384C51.7759 39.1384 52.5435 38.3708 52.5435 37.4198C52.5435 36.4688 51.7759 35.7012 50.8249 35.7012ZM27.83 26.8446C27.6696 26.4895 27.3831 26.203 27.0394 26.0312V6.96609L33.0774 27.4519C31.3588 27.1196 29.6059 26.9134 27.83 26.8446ZM19.4317 27.4633L25.5041 6.84005V26.0312C25.1604 26.203 24.874 26.4895 24.7136 26.8446C22.9262 26.9248 21.1618 27.1311 19.4317 27.4633ZM28.3226 5.93492L46.9982 33.4785C43.3089 30.8203 39.1728 28.907 34.7731 27.83L28.3226 5.93492ZM17.736 27.8414C13.3593 28.9184 9.23465 30.8203 5.54537 33.4785L24.1636 6.02658L17.736 27.83V27.8414ZM3.4143 37.1563C7.41292 33.5243 12.1219 30.9464 17.2319 29.5486L13.5197 42.1402L3.4143 37.6719C3.42576 37.5917 3.43721 37.5 3.43721 37.4198C3.43721 37.3396 3.42576 37.2365 3.4143 37.1563ZM18.939 29.1247C20.841 28.7122 22.7773 28.4487 24.7594 28.3685C24.9313 28.6893 25.1948 28.9413 25.5156 29.1017V46.7346C25.2979 46.8492 25.1031 46.9982 24.9427 47.1929L14.929 42.7589L18.9505 29.1247H18.939ZM27.0394 46.7346V29.1017C27.3602 28.9413 27.6237 28.6893 27.7956 28.3685C29.7548 28.4487 31.6911 28.7122 33.5701 29.1247L37.5917 42.7819L27.6008 47.1929C27.4404 46.9982 27.2571 46.8492 27.028 46.7346H27.0394ZM35.2773 29.5371C40.3987 30.9349 45.1306 33.5128 49.1292 37.1563C49.1178 37.2479 49.1063 37.3281 49.1063 37.4198C49.1063 37.5115 49.1178 37.5917 49.1292 37.6719L39.0009 42.1517L35.2773 29.5257V29.5371Z" fill="white"/>
</svg>
